<?xml version="1.0" encoding="utf-8"?>
<!-- Generator: Adobe Illustrator 22.0.1, SVG Export Plug-In . SVG Version: 6.00 Build 0)  -->
<svg version="1.1" id="Layer_1" xmlns="http://www.w3.org/2000/svg" xmlns:xlink="http://www.w3.org/1999/xlink" x="0px" y="0px"
	 viewBox="0 0 200 200" style="enable-background:new 0 0 200 200;" xml:space="preserve">
<style type="text/css">
	.st0{fill:#FFA08A;stroke:#000000;stroke-width:3;stroke-miterlimit:10;}
</style>
<path class="st0" d="M260.5,48.5"/>
<path class="st0" d="M364.5,48.5"/>
<g>
	<path d="M32.8,95.6h2.8v19.3h9.3v2.4H32.8V95.6z"/>
	<path d="M51,97.3c0,1-0.7,1.7-1.8,1.7c-1,0-1.7-0.8-1.7-1.7c0-1,0.7-1.8,1.8-1.8C50.3,95.5,51,96.3,51,97.3z M47.9,117.3v-15.6h2.8
		v15.6H47.9z"/>
	<path d="M69.5,109.4c0,5.8-4,8.3-7.8,8.3c-4.2,0-7.5-3.1-7.5-8c0-5.2,3.4-8.3,7.7-8.3C66.5,101.3,69.5,104.6,69.5,109.4z
		 M57.1,109.5c0,3.4,2,6,4.7,6c2.7,0,4.7-2.5,4.7-6.1c0-2.6-1.3-6-4.7-6C58.6,103.5,57.1,106.6,57.1,109.5z"/>
	<path d="M73.1,105.9c0-1.6,0-2.9-0.1-4.2h2.5l0.2,2.6h0.1c0.8-1.5,2.6-2.9,5.2-2.9c2.2,0,5.5,1.3,5.5,6.6v9.3h-2.8v-9
		c0-2.5-0.9-4.6-3.6-4.6c-1.9,0-3.3,1.3-3.8,2.9c-0.1,0.4-0.2,0.8-0.2,1.3v9.4h-2.8V105.9z"/>
	<path d="M100.7,95.6v9.1h10.5v-9.1h2.8v21.7h-2.8v-10.2h-10.5v10.2h-2.8V95.6H100.7z"/>
	<path d="M120.3,110c0.1,3.8,2.5,5.4,5.3,5.4c2,0,3.3-0.4,4.3-0.8l0.5,2c-1,0.5-2.7,1-5.2,1c-4.8,0-7.7-3.2-7.7-7.9
		c0-4.7,2.8-8.4,7.3-8.4c5.1,0,6.4,4.5,6.4,7.3c0,0.6-0.1,1-0.1,1.3H120.3z M128.6,108c0-1.8-0.7-4.6-3.9-4.6
		c-2.9,0-4.1,2.6-4.3,4.6H128.6z"/>
	<path d="M143.5,117.3l-0.2-2h-0.1c-0.9,1.2-2.5,2.3-4.8,2.3c-3.2,0-4.8-2.2-4.8-4.5c0-3.8,3.3-5.8,9.4-5.8V107
		c0-1.3-0.4-3.6-3.5-3.6c-1.4,0-3,0.5-4.1,1.2l-0.6-1.9c1.3-0.8,3.2-1.4,5.1-1.4c4.8,0,5.9,3.3,5.9,6.4v5.8c0,1.4,0.1,2.7,0.3,3.7
		H143.5z M143.1,109.3c-3.1-0.1-6.6,0.5-6.6,3.5c0,1.8,1.2,2.7,2.7,2.7c2,0,3.3-1.3,3.8-2.6c0.1-0.3,0.2-0.6,0.2-0.9V109.3z"/>
	<path d="M150.4,106.6c0-1.8,0-3.4-0.1-4.9h2.5l0.1,3.1h0.1c0.7-2.1,2.4-3.4,4.3-3.4c0.3,0,0.5,0,0.8,0.1v2.7
		c-0.3-0.1-0.6-0.1-1-0.1c-2,0-3.4,1.5-3.8,3.6c-0.1,0.4-0.1,0.8-0.1,1.3v8.3h-2.8V106.6z"/>
	<path d="M165.1,97.2v4.5h4.1v2.2h-4.1v8.4c0,1.9,0.5,3,2.1,3c0.7,0,1.3-0.1,1.6-0.2l0.1,2.1c-0.5,0.2-1.4,0.4-2.5,0.4
		c-1.3,0-2.4-0.4-3.1-1.2c-0.8-0.8-1.1-2.2-1.1-4.1v-8.5h-2.4v-2.2h2.4V98L165.1,97.2z"/>
</g>
</svg>
