<?xml version="1.0" encoding="utf-8"?>
<!-- Generator: Adobe Illustrator 22.0.1, SVG Export Plug-In . SVG Version: 6.00 Build 0)  -->
<svg version="1.1" id="Layer_1" xmlns="http://www.w3.org/2000/svg" xmlns:xlink="http://www.w3.org/1999/xlink" x="0px" y="0px"
	 viewBox="0 0 200 200" style="enable-background:new 0 0 200 200;" xml:space="preserve">
<style type="text/css">
	.st0{fill:#FFA18B;}
</style>
<g>
	<polygon class="st0" points="80,31.3 99,69.8 141.5,76 110.8,106 118,148.3 80,128.3 42,148.3 49.2,106 18.5,76 61,69.8 	"/>
	<g>
		<path d="M78.7,32.1c5.7,11.5,11.4,23,17,34.5c1.6,3.2,1.8,4.5,5.3,5.1c7.2,1.1,14.5,2.1,21.7,3.2c6.1,0.9,12.2,1.8,18.3,2.7
			c-0.2-0.8-0.4-1.7-0.7-2.5c-9.2,9-18.4,17.9-27.6,26.9c-2.6,2.5-3.8,3.2-3.2,6.8c1.3,7.3,2.5,14.6,3.8,21.9
			c1,6.1,2.1,12.2,3.1,18.2c0.7-0.6,1.5-1.1,2.2-1.7c-11.4-6-22.7-11.9-34.1-17.9c-3.2-1.7-4.2-2.7-7.5-1
			c-6.5,3.4-13.1,6.9-19.6,10.3c-5.5,2.9-10.9,5.7-16.4,8.6c0.7,0.6,1.5,1.1,2.2,1.7c2.2-12.6,4.3-25.3,6.5-37.9
			c0.6-3.5,1.3-4.9-1.2-7.4C43.4,98.2,38.1,93,32.8,87.9C28.4,83.6,24,79.3,19.6,75c-0.2,0.8-0.4,1.7-0.7,2.5
			c12.7-1.8,25.4-3.7,38.1-5.5c3.6-0.5,4.8-0.3,6.4-3.6c3.2-6.6,6.5-13.1,9.7-19.7c2.7-5.5,5.5-11.1,8.2-16.6
			c0.9-1.7-1.7-3.2-2.6-1.5c-5.5,11.1-11,22.2-16.4,33.3c-0.8,1.6-1.5,3.5-2.5,5c0.3-0.4,1.3-0.4,0.1-0.4c-0.9,0-1.9,0.3-2.8,0.4
			C49.9,70,42.7,71,35.4,72c-5.8,0.8-11.6,1.7-17.3,2.5c-1.1,0.2-1.4,1.8-0.7,2.5C26.3,85.7,35.2,94.4,44,103c1.1,1.1,2.6,3.2,4,3.9
			c-0.7-0.3,0.3-1.8-0.4-0.6c-0.4,0.7-0.3,2-0.5,2.8c-1.2,7.2-2.5,14.4-3.7,21.5c-1,5.8-2,11.5-3,17.3c-0.2,1.3,1,2.3,2.2,1.7
			c11-5.8,21.9-11.5,32.9-17.3c1.5-0.8,3.7-1.5,5-2.6c-0.6,0.6-1.6-0.8-0.7,0.2c0.5,0.6,1.8,1,2.5,1.3c6.4,3.4,12.9,6.8,19.3,10.2
			c5.2,2.7,10.3,5.4,15.5,8.2c1.2,0.6,2.4-0.4,2.2-1.7c-2.1-12.2-4.2-24.4-6.3-36.6c-0.3-1.7-0.3-3.9-0.9-5.5
			c0.3,0.9-1.1,1.2,0.1,0.8c0.7-0.3,1.5-1.5,2-2c5.2-5.1,10.4-10.2,15.6-15.3c4.2-4.1,8.4-8.2,12.6-12.2c0.7-0.7,0.5-2.3-0.7-2.5
			c-12.3-1.8-24.5-3.6-36.8-5.3c-1.8-0.3-3.8-0.4-5.6-0.8c0.4,0.1,0.8,1.2,0.4,0c-0.3-0.9-0.9-1.7-1.3-2.5
			c-3.2-6.5-6.4-13.1-9.7-19.6c-2.6-5.2-5.2-10.5-7.8-15.7C80.4,28.8,77.9,30.4,78.7,32.1z"/>
	</g>
</g>
</svg>
